<svg viewBox="0 0 66.9377 32" xmlns="http://www.w3.org/2000/svg" xmlns:xlink="http://www.w3.org/1999/xlink" width="66.937683" height="32.000000" fill="none" customFrame="#000000">
	<g id="mango-1">
		<path id="Vector" d="M1.44807 4.43062L5.65397 4.43062C5.27723 4.17376 4.56797 3.84668 3.40048 3.84668C2.55542 3.84668 1.92259 4.08258 1.44807 4.43062ZM6.36013 4.43062L10.7593 4.43062C10.2409 4.08258 9.51534 3.84668 8.50188 3.84668C7.43178 3.84668 6.73921 4.17376 6.36013 4.43062ZM0.854431 5.01456L11.3878 5.01456C11.211 4.78747 10.9987 4.5903 10.7593 4.43062L6.36013 4.43062C6.1153 4.59629 6.00123 4.73248 6.00123 4.73248C6.00123 4.73248 5.89647 4.59629 5.65397 4.43062L1.44807 4.43062C1.22371 4.59638 1.02387 4.79296 0.854431 5.01456Z" fill="rgb(72.5732,179.562,83.2721)" fill-rule="evenodd" />
		<path id="Vector" d="M0.502441 5.5789L11.73 5.5789C11.6381 5.37844 11.5234 5.18927 11.3881 5.01514L0.854356 5.01514C0.714676 5.19672 0.598665 5.388 0.502441 5.5789Z" fill="rgb(72.5732,179.562,83.2721)" fill-rule="evenodd" />
		<path id="Vector" d="M0.262164 6.16207L11.9343 6.16207C11.8841 5.96153 11.8156 5.76606 11.7295 5.57812L0.502335 5.57812C0.402231 5.77678 0.323855 5.97505 0.262164 6.16207ZM0.10968 6.74639L2.79618 6.74639C2.96923 6.54541 3.25441 6.36382 3.7204 6.36382C4.18677 6.36382 4.45216 6.54579 4.60271 6.74639L7.58021 6.74639C7.75597 6.54541 8.04619 6.36382 8.5211 6.36382C8.96963 6.36382 9.23696 6.54579 9.39604 6.74639L12.0329 6.74639C12.015 6.54949 11.9819 6.35426 11.9339 6.16245L0.262164 6.16245C0.199398 6.35378 0.148474 6.5488 0.10968 6.74639Z" fill="rgb(72.5732,179.562,83.2721)" fill-rule="evenodd" />
		<path id="Vector" d="M0.0395552 7.31035L2.54021 7.31035L2.54021 7.26999C2.54021 7.26999 2.58289 6.99413 2.79629 6.74658L0.109783 6.74658C0.0484791 7.06125 0.0395552 7.26999 0.0395552 7.26999L0.0395552 7.31035ZM4.80107 7.31035L7.3219 7.31035L7.3219 7.26999C7.3219 7.26999 7.36497 6.99413 7.58108 6.74658L4.60358 6.74658C4.71613 6.89969 4.78457 7.08072 4.80146 7.26999L4.80146 7.31035L4.80107 7.31035ZM9.62196 7.31035L12.0427 7.31035L12.0427 7.26999C12.0427 7.26999 12.0621 7.06086 12.0334 6.74658L9.39653 6.74658C9.59131 6.99413 9.62196 7.26999 9.62196 7.26999L9.62196 7.31035ZM0.0383911 7.89428L2.54021 7.89428L2.54021 7.31035L0.0395552 7.31035L0.0383911 7.89428ZM4.80107 7.89428L7.3219 7.89428L7.3219 7.31035L4.80107 7.31035L4.80107 7.89428ZM9.62196 7.89428L12.0427 7.89428L12.0427 7.31035L9.62196 7.31035L9.62196 7.89428Z" fill="rgb(72.5732,179.562,83.2721)" fill-rule="evenodd" />
		<path id="Vector" d="M0.0372574 8.47896L2.54062 8.47896L2.54062 7.89502L0.0388097 7.89502L0.0372574 8.47896ZM4.8011 8.47896L7.32193 8.47896L7.32193 7.89502L4.8011 7.89502L4.8011 8.47896ZM9.62199 8.47896L12.0427 8.47896L12.0427 7.89502L9.62199 7.89502L9.62199 8.47896ZM0.0357056 9.04272L2.54024 9.04272L2.54024 8.47896L0.0368697 8.47896L0.0357056 9.04272ZM4.8011 9.04272L7.32193 9.04272L7.32193 8.47896L4.8011 8.47896L4.8011 9.04272ZM9.62199 9.04272L12.0427 9.04272L12.0427 8.47896L9.62199 8.47896L9.62199 9.04272Z" fill="rgb(72.5732,179.562,83.2721)" fill-rule="evenodd" />
		<path id="Vector" d="M0.0349776 9.62593L2.54067 9.62593L2.54067 9.04199L0.0357535 9.04199L0.0349776 9.62593ZM4.80115 9.62593L7.32198 9.62593L7.32198 9.04199L4.80115 9.04199L4.80115 9.62593ZM9.62204 9.62593L12.0428 9.62593L12.0428 9.04199L9.62204 9.04199L9.62204 9.62593ZM0.0338135 10.1897L2.54067 10.1897L2.54067 9.62593L0.0349776 9.62593L0.0338135 10.1897ZM4.80115 10.1897L7.32198 10.1897L7.32198 9.62593L4.80115 9.62593L4.80115 10.1897ZM9.62204 10.1897L12.0428 10.1897L12.0428 9.62593L9.62204 9.62593L9.62204 10.1897Z" fill="rgb(72.5732,179.562,83.2721)" fill-rule="evenodd" />
		<path id="Vector" d="M0.03217 10.7743L2.54019 10.7743L2.54019 10.1899L0.0333341 10.1899L0.03217 10.7743ZM4.80106 10.7743L7.32189 10.7743L7.32189 10.1899L4.80106 10.1899L4.80106 10.7743ZM9.62194 10.7743L12.0427 10.7743L12.0427 10.1899L9.62194 10.1899L9.62194 10.7743ZM0.0310059 11.3582L2.54058 11.3582L2.54058 10.7743L0.0325577 10.7743L0.0310059 11.3582ZM4.80106 11.3582L7.32189 11.3582L7.32189 10.7743L4.80106 10.7743L4.80106 11.3582ZM9.62194 11.3582L12.0427 11.3582L12.0427 10.7743L9.62194 10.7743L9.62194 11.3582Z" fill="rgb(72.5732,179.562,83.2721)" fill-rule="evenodd" />
		<path id="Vector" d="M0.0297852 11.9217L2.54052 11.9217L2.54052 11.3579L0.0309493 11.3579L0.0297852 11.9217ZM4.801 11.9217L7.32183 11.9217L7.32183 11.3579L4.801 11.3579L4.801 11.9217ZM9.62189 11.9217L12.0426 11.9217L12.0426 11.3579L9.62189 11.3579L9.62189 11.9217Z" fill="rgb(72.5732,179.562,83.2721)" fill-rule="evenodd" />
		<path id="Vector" d="M0.0286865 12.5062L2.54059 12.5062L2.54059 11.9219L0.0298503 11.9219L0.0286865 12.5062ZM4.80107 12.5062L7.3219 12.5062L7.3219 11.9219L4.80107 11.9219L4.80107 12.5062ZM9.62195 12.5062L12.0427 12.5062L12.0427 11.9219L9.62195 11.9219L9.62195 12.5062Z" fill="rgb(72.5732,179.562,83.2721)" fill-rule="evenodd" />
		<path id="Vector" d="M0.0270996 13.0898L2.54055 13.0898L2.54055 12.5059L0.0286519 12.5059L0.0270996 13.0898ZM4.80103 13.0898L7.32186 13.0898L7.32186 12.5059L4.80103 12.5059L4.80103 13.0898ZM9.62192 13.0898L12.0426 13.0898L12.0426 12.5059L9.62192 12.5059L9.62192 13.0898Z" fill="rgb(72.5732,179.562,83.2721)" fill-rule="evenodd" />
		<path id="Vector" d="M0.0264192 13.6536L2.54065 13.6536L2.54065 13.0898L0.0271951 13.0898L0.0264192 13.6536ZM4.80113 13.6536L7.32196 13.6536L7.32196 13.0898L4.80113 13.0898L4.80113 13.6536ZM9.62201 13.6536L12.0427 13.6536L12.0427 13.0898L9.62201 13.0898L9.62201 13.6536ZM0.0248673 14.2375L2.54026 14.2375L2.54026 13.6536L0.0260314 13.6536L0.0248673 14.2375ZM4.80113 14.2375L7.32196 14.2375L7.32196 13.6536L4.80113 13.6536L4.80113 14.2375ZM9.62201 14.2375L12.0427 14.2375L12.0427 13.6536L9.62201 13.6536L9.62201 14.2375ZM0.0233154 14.8219L2.54026 14.8219L2.54026 14.2379L0.0248673 14.2379L0.0233154 14.8219ZM4.80113 14.8219L7.32196 14.8219L7.32196 14.2379L4.80113 14.2379L4.80113 14.8219ZM9.62201 14.8219L12.0427 14.8219L12.0427 14.2379L9.62201 14.2379L9.62201 14.8219Z" fill="rgb(72.5732,179.562,83.2721)" fill-rule="evenodd" />
		<path id="Vector" d="M0.0220992 15.3855L2.54021 15.3855L2.54021 14.8218L0.0232633 14.8218L0.0220992 15.3855ZM4.80108 15.3855L7.32191 15.3855L7.32191 14.8218L4.80108 14.8218L4.80108 15.3855ZM9.62196 15.3855L12.0427 15.3855L12.0427 14.8218L9.62196 14.8218L9.62196 15.3855ZM0.0209351 15.9695L2.54021 15.9695L2.54021 15.3855L0.0220992 15.3855L0.0209351 15.9695ZM4.80108 15.9695L7.32191 15.9695L7.32191 15.3855L4.80108 15.3855L4.80108 15.9695ZM9.62196 15.9695L12.0427 15.9695L12.0427 15.3855L9.62196 15.3855L9.62196 15.9695Z" fill="rgb(72.5732,179.562,83.2721)" fill-rule="evenodd" />
		<path id="Vector" d="M0.0197144 16.5537L2.54054 16.5537L2.54054 15.9697L0.0212666 15.9697L0.0197144 16.5537ZM4.80102 16.5537L7.32185 16.5537L7.32185 15.9697L4.80102 15.9697L4.80102 16.5537ZM9.6219 16.5537L12.0426 16.5537L12.0426 15.9697L9.6219 15.9697L9.6219 16.5537Z" fill="rgb(72.5732,179.562,83.2721)" fill-rule="evenodd" />
		<path id="Vector" d="M0.0185591 17.117L2.54055 17.117L2.54055 16.5532L0.0197228 16.5532L0.0185591 17.117ZM4.80103 17.117L7.32186 17.117L7.32186 16.5532L4.80103 16.5532L4.80103 17.117ZM9.62191 17.117L12.0426 17.117L12.0426 16.5532L9.62191 16.5532L9.62191 17.117ZM0.017395 17.7013L2.54055 17.7013L2.54055 17.117L0.0185591 17.117L0.017395 17.7013ZM4.80103 17.7013L7.32186 17.7013L7.32186 17.117L4.80103 17.117L4.80103 17.7013ZM9.62191 17.7013L12.0426 17.7013L12.0426 17.117L9.62191 17.117L9.62191 17.7013Z" fill="rgb(72.5732,179.562,83.2721)" fill-rule="evenodd" />
		<path id="Vector" d="M0.015939 18.2654L2.54026 18.2654L2.54026 17.7017L0.0171028 17.7017L0.015939 18.2654ZM4.80113 18.2654L7.32195 18.2654L7.32195 17.7017L4.80113 17.7017L4.80113 18.2654ZM9.62201 18.2654L12.0427 18.2654L12.0427 17.7017L9.62201 17.7017L9.62201 18.2654ZM0.0147749 18.8497L2.54065 18.8497L2.54065 18.2654L0.0163268 18.2654L0.0147749 18.8497ZM4.80113 18.8497L7.32195 18.8497L7.32195 18.2654L4.80113 18.2654L4.80113 18.8497ZM9.62201 18.8497L12.0427 18.8497L12.0427 18.2654L9.62201 18.2654L9.62201 18.8497ZM0.0136108 19.4333L2.54065 19.4333L2.54065 18.8497L0.0147749 18.8497L0.0136108 19.4333ZM4.80113 19.4333L7.32195 19.4333L7.32195 18.8497L4.80113 18.8497L4.80113 19.4333ZM9.62201 19.4333L12.0427 19.4333L12.0427 18.8497L9.62201 18.8497L9.62201 19.4333Z" fill="rgb(72.5732,179.562,83.2721)" fill-rule="evenodd" />
		<path id="Vector" d="M0.0119673 19.9981L2.54055 19.9981L2.54055 19.4336L0.0135192 19.4336L0.0119673 19.9981ZM4.80103 19.9981L7.32186 19.9981L7.32186 19.4336L4.80103 19.4336L4.80103 19.9981ZM9.62192 19.9981L12.0426 19.9981L12.0426 19.4336L9.62192 19.4336L9.62192 19.9981ZM0.0108032 20.5817L2.54017 20.5817L2.54017 19.9981L0.0115792 19.9981L0.0108032 20.5817ZM4.80103 20.5817L7.32186 20.5817L7.32186 19.9981L4.80103 19.9981L4.80103 20.5817ZM9.62192 20.5817L12.0426 20.5817L12.0426 19.9981L9.62192 19.9981L9.62192 20.5817Z" fill="rgb(72.5732,179.562,83.2721)" fill-rule="evenodd" />
		<path id="Vector" d="M0.00966956 21.1654L2.5402 21.1654L2.5402 20.5811L0.0108337 20.5811L0.00966956 21.1654ZM4.80106 21.1654L7.32189 21.1654L7.32189 20.5811L4.80106 20.5811L4.80106 21.1654ZM9.62195 21.1654L12.0427 21.1654L12.0427 20.5811L9.62195 20.5811L9.62195 21.1654ZM0.00811768 21.7295L2.5402 21.7295L2.5402 21.1658L0.00966956 21.1658L0.00811768 21.7295ZM4.80106 21.7295L7.32189 21.7295L7.32189 21.1658L4.80106 21.1658L4.80106 21.7295ZM9.62195 21.7295L12.0427 21.7295L12.0427 21.1658L9.62195 21.1658L9.62195 21.7295Z" fill="rgb(72.5732,179.562,83.2721)" fill-rule="evenodd" />
		<path id="Vector" d="M0.00738525 22.3138L2.54063 22.3138L2.54063 21.7295L0.00854935 21.7295L0.00738525 22.3138ZM4.80111 22.3138L7.32194 22.3138L7.32194 21.7295L4.80111 21.7295L4.80111 22.3138ZM9.62199 22.3138L12.0427 22.3138L12.0427 21.7295L9.62199 21.7295L9.62199 22.3138Z" fill="rgb(72.5732,179.562,83.2721)" fill-rule="evenodd" />
		<path id="Vector" d="M0.00574173 22.897L2.54015 22.897L2.54015 22.3135L0.00690546 22.3135L0.00574173 22.897ZM4.80102 22.897L7.32184 22.897L7.32184 22.3135L4.80102 22.3135L4.80102 22.897ZM9.6219 22.897L12.0426 22.897L12.0426 22.3135L9.6219 22.3135L9.6219 22.897ZM0.00457764 23.4608L2.54015 23.4608L2.54015 22.897L0.00574173 22.897L0.00457764 23.4608ZM4.80102 23.4608L7.32184 23.4608L7.32184 22.897L4.80102 22.897L4.80102 23.4608ZM9.6219 23.4608L12.0426 23.4608L12.0426 22.897L9.6219 22.897L9.6219 23.4608Z" fill="rgb(72.5732,179.562,83.2721)" fill-rule="evenodd" />
		<path id="Vector" d="M0.00342646 24.0453L2.54016 24.0453L2.54016 23.4609L0.00459055 23.4609L0.00342646 24.0453ZM4.80103 24.0453L7.32186 24.0453L7.32186 23.4609L4.80103 23.4609L4.80103 24.0453ZM9.62191 24.0453L12.0426 24.0453L12.0426 23.4609L9.62191 23.4609L9.62191 24.0453ZM0.00265051 24.6296L2.54055 24.6296L2.54055 24.0453L0.00381461 24.0453L0.00265051 24.6296ZM4.80103 24.6296L7.32186 24.6296L7.32186 24.0453L4.80103 24.0453L4.80103 24.6296ZM9.62191 24.6296L12.0426 24.6296L12.0426 24.0453L9.62191 24.0453L9.62191 24.6296ZM0.00109863 25.1933L2.54055 25.1933L2.54055 24.6296L0.00265051 24.6296L0.00109863 25.1933ZM4.80103 25.1933L7.32186 25.1933L7.32186 24.6296L4.80103 24.6296L4.80103 25.1933ZM9.62191 25.1933L12.0426 25.1933L12.0426 24.6296L9.62191 24.6296L9.62191 25.1933Z" fill="rgb(72.5732,179.562,83.2721)" fill-rule="evenodd" />
		<path id="Vector" d="M0 25.7764L2.54062 25.7764L2.54062 25.1929L0.0011641 25.1929L0 25.7764ZM4.8011 25.7764L7.32192 25.7764L7.32192 25.1929L4.8011 25.1929L4.8011 25.7764ZM9.62198 25.7764L12.0427 25.7764L12.0427 25.1929L9.62198 25.1929L9.62198 25.7764Z" fill="rgb(72.5732,179.562,83.2721)" fill-rule="evenodd" />
		<path id="Vector" d="M0 25.7767L0.0399637 7.26999C0.0399637 7.26999 0.180032 3.84668 3.4012 3.84668C5.32179 3.84668 6.00195 4.73248 6.00195 4.73248C6.00195 4.73248 6.74225 3.84668 8.5026 3.84668C12.3636 3.84668 12.0435 7.26999 12.0435 7.26999L12.0435 25.7767L9.62275 25.7767L9.62275 7.26999C9.62275 7.26999 9.52304 6.36401 8.52239 6.36401C7.46238 6.36401 7.32231 7.26999 7.32231 7.26999L7.32231 25.7767L4.80148 25.7767L4.80148 7.26999C4.80148 7.26999 4.76152 6.36401 3.72129 6.36401C2.68107 6.36401 2.541 7.26999 2.541 7.26999L2.541 25.7767L0 25.7767Z" fill-rule="nonzero" />
		<path id="Vector" d="M30.6678 3.60493L30.998 3.60493L30.6678 3.021L30.6678 3.60493ZM30.6678 4.20905L31.3402 4.20905L30.998 3.60493L30.6678 3.60493L30.6678 4.20905Z" fill="rgb(72.5732,179.562,83.2721)" fill-rule="evenodd" />
		<path id="Vector" d="M30.6678 4.8131L31.682 4.8131L31.3402 4.20898L30.6678 4.20898L30.6678 4.8131ZM35.569 4.8131L37.9296 4.8131L37.9296 4.22916L35.569 4.22916L35.569 4.8131Z" fill="rgb(72.5732,179.562,83.2721)" fill-rule="evenodd" />
		<path id="Vector" d="M30.6678 5.41749L32.0242 5.41749L31.682 4.81299L30.6678 4.81299L30.6678 5.41749ZM35.569 5.41749L37.9296 5.41749L37.9296 4.81299L35.569 4.81299L35.569 5.41749Z" fill="rgb(72.5732,179.562,83.2721)" fill-rule="evenodd" />
		<path id="Vector" d="M30.6678 6.00142L32.3544 6.00142L32.0242 5.41748L30.6678 5.41748L30.6678 6.00142ZM35.569 6.00142L37.9296 6.00142L37.9296 5.41748L35.569 5.41748L35.569 6.00142Z" fill="rgb(72.5732,179.562,83.2721)" fill-rule="evenodd" />
		<path id="Vector" d="M30.6678 6.60558L32.6966 6.60558L32.3544 6.00146L30.6678 6.00146L30.6678 6.60558ZM35.569 6.60558L37.9296 6.60558L37.9296 6.00146L35.569 6.00146L35.569 6.60558ZM30.6678 7.20969L33.0385 7.20969L32.6966 6.60558L30.6678 6.60558L30.6678 7.20969ZM35.569 7.20969L37.9296 7.20969L37.9296 6.60558L35.569 6.60558L35.569 7.20969Z" fill="rgb(72.5732,179.562,83.2721)" fill-rule="evenodd" />
		<path id="Vector" d="M30.6678 7.8132L33.3807 7.8132L33.0385 7.20947L30.6678 7.20947L30.6678 7.8132ZM35.569 7.8132L37.9296 7.8132L37.9296 7.20947L35.569 7.20947L35.569 7.8132ZM30.6678 8.39753L33.7109 8.39753L33.3803 7.8132L30.6674 7.8132L30.6674 8.39753L30.6678 8.39753ZM35.569 8.39753L37.9296 8.39753L37.9296 7.8132L35.569 7.8132L35.569 8.39753Z" fill="rgb(72.5732,179.562,83.2721)" fill-rule="evenodd" />
		<path id="Vector" d="M30.6678 9.00206L34.0527 9.00206L33.7109 8.39795L30.6678 8.39795L30.6678 9.00206ZM35.569 9.00206L37.9296 9.00206L37.9296 8.39795L35.569 8.39795L35.569 9.00206ZM30.6678 9.60618L34.3953 9.60618L34.0527 9.00206L30.6678 9.00206L30.6678 9.60618ZM35.569 9.60618L37.9296 9.60618L37.9296 9.00206L35.569 9.00206L35.569 9.60618Z" fill="rgb(72.5732,179.562,83.2721)" fill-rule="evenodd" />
		<path id="Vector" d="M30.6678 10.2105L34.7371 10.2105L34.3953 9.60596L30.6678 9.60596L30.6678 10.2105ZM35.569 10.2105L37.9296 10.2105L37.9296 9.60596L35.569 9.60596L35.569 10.2105Z" fill="rgb(72.5732,179.562,83.2721)" fill-rule="evenodd" />
		<path id="Vector" d="M30.6678 10.7939L35.0673 10.7939L34.7367 10.21L30.6678 10.21L30.6678 10.7939ZM35.569 10.7939L37.9296 10.7939L37.9296 10.21L35.569 10.21L35.569 10.7939ZM30.6678 11.398L35.4091 11.398L35.0673 10.7939L30.6678 10.7939L30.6678 11.398ZM35.569 11.398L37.9296 11.398L37.9296 10.7939L35.569 10.7939L35.569 11.398Z" fill="rgb(72.5732,179.562,83.2721)" fill-rule="evenodd" />
		<path id="Vector" d="M30.6678 12.0021L37.9296 12.0021L37.9296 11.3979L35.569 11.3979L35.569 11.6804L35.4091 11.3979L30.6678 11.3979L30.6678 12.0021ZM30.6678 12.6062L32.988 12.6062L32.988 12.0626L33.338 12.6062L37.9296 12.6062L37.9296 12.0021L30.6678 12.0021L30.6678 12.6062Z" fill="rgb(72.5732,179.562,83.2721)" fill-rule="evenodd" />
		<path id="Vector" d="M30.6678 13.1909L32.988 13.1909L32.988 12.6069L30.6678 12.6069L30.6678 13.1909ZM33.7132 13.1909L37.9296 13.1909L37.9296 12.6069L33.338 12.6069L33.7132 13.1909Z" fill="rgb(72.5732,179.562,83.2721)" fill-rule="evenodd" />
		<path id="Vector" d="M30.6678 13.795L32.988 13.795L32.988 13.1909L30.6678 13.1909L30.6678 13.795ZM34.102 13.795L37.9296 13.795L37.9296 13.1909L33.7132 13.1909L34.102 13.795Z" fill="rgb(72.5732,179.562,83.2721)" fill-rule="evenodd" />
		<path id="Vector" d="M30.6678 14.3985L32.988 14.3985L32.988 13.7944L30.6678 13.7944L30.6678 14.3985ZM34.4907 14.3985L37.9296 14.3985L37.9296 13.7944L34.102 13.7944L34.4907 14.3985Z" fill="rgb(72.5732,179.562,83.2721)" fill-rule="evenodd" />
		<path id="Vector" d="M30.6678 14.9833L32.988 14.9833L32.988 14.3989L30.6678 14.3989L30.6678 14.9833ZM34.8659 14.9833L37.9296 14.9833L37.9296 14.3989L34.4907 14.3989L34.8659 14.9833Z" fill="rgb(72.5732,179.562,83.2721)" fill-rule="evenodd" />
		<path id="Vector" d="M30.6678 15.587L32.988 15.587L32.988 14.9829L30.6678 14.9829L30.6678 15.587ZM35.2543 15.587L37.9296 15.587L37.9296 14.9829L34.8659 14.9829L35.2543 15.587Z" fill="rgb(72.5732,179.562,83.2721)" fill-rule="evenodd" />
		<path id="Vector" d="M30.6678 16.191L32.988 16.191L32.988 15.5869L30.6678 15.5869L30.6678 16.191ZM35.6431 16.191L37.9296 16.191L37.9296 15.5869L35.2543 15.5869L35.6431 16.191ZM30.6678 16.7951L32.988 16.7951L32.988 16.191L30.6678 16.191L30.6678 16.7951ZM35.6691 16.7951L37.9296 16.7951L37.9296 16.191L35.6431 16.191L35.6687 16.2314L35.6687 16.7951L35.6691 16.7951ZM30.6678 17.3795L32.988 17.3795L32.988 16.7951L30.6678 16.7951L30.6678 17.3795ZM35.6691 17.3795L37.9296 17.3795L37.9296 16.7951L35.6691 16.7951L35.6691 17.3795Z" fill="rgb(72.5732,179.562,83.2721)" fill-rule="evenodd" />
		<path id="Vector" d="M30.6678 17.983L32.988 17.983L32.988 17.3789L30.6678 17.3789L30.6678 17.983ZM35.6691 17.983L37.9296 17.983L37.9296 17.3789L35.6691 17.3789L35.6691 17.983ZM30.6678 18.5871L32.988 18.5871L32.988 17.983L30.6678 17.983L30.6678 18.5871ZM35.6691 18.5871L37.9296 18.5871L37.9296 17.983L35.6691 17.983L35.6691 18.5871Z" fill="rgb(72.5732,179.562,83.2721)" fill-rule="evenodd" />
		<path id="Vector" d="M30.6678 19.1918L32.988 19.1918L32.988 18.5869L30.6678 18.5869L30.6678 19.1918ZM35.6691 19.1918L37.9296 19.1918L37.9296 18.5869L35.6691 18.5869L35.6691 19.1918Z" fill="rgb(72.5732,179.562,83.2721)" fill-rule="evenodd" />
		<path id="Vector" d="M30.6678 19.7759L32.988 19.7759L32.988 19.1924L30.6678 19.1924L30.6678 19.7759ZM35.6691 19.7759L37.9296 19.7759L37.9296 19.1924L35.6691 19.1924L35.6691 19.7759ZM30.6678 20.3808L32.988 20.3808L32.988 19.7759L30.6678 19.7759L30.6678 20.3808ZM35.6691 20.3808L37.9296 20.3808L37.9296 19.7759L35.6691 19.7759L35.6691 20.3808Z" fill="rgb(72.5732,179.562,83.2721)" fill-rule="evenodd" />
		<path id="Vector" d="M30.6678 20.9845L32.988 20.9845L32.988 20.3804L30.6678 20.3804L30.6678 20.9845ZM35.6691 20.9845L37.9296 20.9845L37.9296 20.3804L35.6691 20.3804L35.6691 20.9845Z" fill="rgb(72.5732,179.562,83.2721)" fill-rule="evenodd" />
		<path id="Vector" d="M30.6678 21.588L32.988 21.588L32.988 20.9839L30.6678 20.9839L30.6678 21.588ZM35.6691 21.588L37.9296 21.588L37.9296 20.9839L35.6691 20.9839L35.6691 21.588ZM30.6678 22.1723L32.988 22.1723L32.988 21.588L30.6678 21.588L30.6678 22.1723ZM35.6691 22.1723L37.9296 22.1723L37.9296 21.588L35.6691 21.588L35.6691 22.1723Z" fill="rgb(72.5732,179.562,83.2721)" fill-rule="evenodd" />
		<path id="Vector" d="M30.6678 22.777L32.988 22.777L32.988 22.1729L30.6678 22.1729L30.6678 22.777ZM35.6691 22.777L37.9296 22.777L37.9296 22.1729L35.6691 22.1729L35.6691 22.777Z" fill="rgb(72.5732,179.562,83.2721)" fill-rule="evenodd" />
		<path id="Vector" d="M30.6678 23.3805L32.988 23.3805L32.988 22.7764L30.6678 22.7764L30.6678 23.3805ZM35.6691 23.3805L37.9296 23.3805L37.9296 22.7764L35.6691 22.7764L35.6691 23.3805Z" fill="rgb(72.5732,179.562,83.2721)" fill-rule="evenodd" />
		<path id="Vector" d="M30.6678 23.9845L32.988 23.9845L32.988 23.3804L30.6678 23.3804L30.6678 23.9845ZM35.6691 23.9845L37.9296 23.9845L37.9296 23.3804L35.6691 23.3804L35.6691 23.9845Z" fill="rgb(72.5732,179.562,83.2721)" fill-rule="evenodd" />
		<path id="Vector" d="M30.6678 24.5692L32.988 24.5692L32.988 23.9849L30.6678 23.9849L30.6678 24.5692ZM35.6691 24.5692L37.9296 24.5692L37.9296 23.9849L35.6691 23.9849L35.6691 24.5692ZM30.6678 25.1733L32.988 25.1733L32.988 24.5692L30.6678 24.5692L30.6678 25.1733ZM35.6691 25.1733L37.9296 25.1733L37.9296 24.5692L35.6691 24.5692L35.6691 25.1733Z" fill="rgb(72.5732,179.562,83.2721)" fill-rule="evenodd" />
		<path id="Vector" d="M30.6678 25.777L32.988 25.777L32.988 25.1729L30.6678 25.1729L30.6678 25.777ZM35.6691 25.777L37.9296 25.777L37.9296 25.1729L35.6691 25.1729L35.6691 25.777Z" fill="rgb(72.5732,179.562,83.2721)" fill-rule="evenodd" />
		<path id="Vector" d="M30.6678 25.7767L30.6678 3.021L35.569 11.6807L35.569 4.22922L37.9296 4.22922L37.9296 25.7767L35.6691 25.7767L35.6691 16.2316L32.988 12.0629L32.988 25.7767L30.6678 25.7767Z" fill-rule="nonzero" />
		<path id="Vector" d="M51.9006 0.846225L53.7533 0.846225L53.7533 0C53.7533 0 53.0075 0.255303 51.9006 0.846225Z" fill="rgb(72.5732,179.562,83.2721)" fill-rule="evenodd" />
		<path id="Vector" d="M50.4681 1.69164L53.7533 1.69164L53.7533 0.846191L51.9006 0.846191C51.4112 1.10726 50.9332 1.38934 50.4681 1.69164Z" fill="rgb(72.5732,179.562,83.2721)" fill-rule="evenodd" />
		<path id="Vector" d="M49.2943 2.51756L53.7532 2.51756L53.7532 1.69189L50.468 1.69189C50.0669 1.95275 49.6754 2.22816 49.2943 2.51756ZM48.2592 3.36339L53.7532 3.36339L53.7532 2.51756L49.2943 2.51756C48.9396 2.7874 48.5943 3.06951 48.2592 3.36339ZM47.359 4.20923L52.8624 4.20923C53.4087 3.95276 53.7536 3.84684 53.7536 3.84684L53.7536 3.36339L48.2596 3.36339C47.9497 3.63489 47.6494 3.917 47.359 4.20923Z" fill="rgb(72.5732,179.562,83.2721)" fill-rule="evenodd" />
		<path id="Vector" d="M46.5714 5.05472L51.3601 5.05472C51.8398 4.737 52.3418 4.45419 52.8621 4.2085L47.3587 4.2085C47.0871 4.48191 46.8246 4.76413 46.5714 5.05472ZM45.8828 5.90056L50.2248 5.90056C50.587 5.59749 50.966 5.31522 51.3601 5.05511L46.5714 5.05511C46.3328 5.32937 46.1031 5.61133 45.8828 5.90056Z" fill="rgb(72.5732,179.562,83.2721)" fill-rule="evenodd" />
		<path id="Vector" d="M45.278 6.74623L49.3116 6.74623C49.6014 6.4488 49.9062 6.16648 50.225 5.90039L45.8829 5.90039C45.6722 6.17579 45.4705 6.45788 45.278 6.74623ZM44.7612 7.57189L48.5783 7.57189C48.81 7.28553 49.0549 7.01002 49.312 6.74623L45.2784 6.74623C45.0999 7.01201 44.928 7.2871 44.7612 7.57189Z" fill="rgb(72.5732,179.562,83.2721)" fill-rule="evenodd" />
		<path id="Vector" d="M44.2997 8.41761L47.9515 8.41761C48.148 8.12671 48.3571 7.8445 48.5781 7.57178L44.761 7.57178C44.599 7.84918 44.4452 8.13124 44.2997 8.41761ZM43.9012 9.26384L47.432 9.26384C47.5988 8.96741 47.7722 8.68572 47.9519 8.418L44.3 8.418C44.1604 8.69193 44.0269 8.97362 43.9012 9.26384Z" fill="rgb(72.5732,179.562,83.2721)" fill-rule="evenodd" />
		<path id="Vector" d="M43.5602 10.1095L47.0014 10.1095C47.1341 9.82225 47.2777 9.5401 47.4317 9.26367L43.9009 9.26367C43.7796 9.54245 43.666 9.8245 43.5602 10.1095Z" fill="rgb(72.5732,179.562,83.2721)" fill-rule="evenodd" />
		<path id="Vector" d="M43.2733 10.9547L46.6493 10.9547C46.7583 10.6622 46.8759 10.3797 47.0008 10.1089L43.5597 10.1089C43.4584 10.3844 43.3629 10.6664 43.2733 10.9547ZM43.0417 11.7804L46.3699 11.7804C46.4565 11.496 46.5496 11.2209 46.6497 10.9547L43.2737 10.9547C43.1891 11.2279 43.1117 11.5032 43.0417 11.7804Z" fill="rgb(72.5732,179.562,83.2721)" fill-rule="evenodd" />
		<path id="Vector" d="M42.8486 12.6266L46.1466 12.6266C46.2141 12.336 46.2882 12.0539 46.37 11.7808L43.0418 11.7808C42.9703 12.061 42.9058 12.3431 42.8486 12.6266ZM42.7007 13.4724L45.9766 13.4724C46.0259 13.1822 46.0825 12.9005 46.1466 12.6266L42.8486 12.6266C42.7931 12.9032 42.7438 13.1853 42.7007 13.4724Z" fill="rgb(72.5732,179.562,83.2721)" fill-rule="evenodd" />
		<path id="Vector" d="M42.5945 14.318L45.8576 14.318C45.8901 14.0286 45.9305 13.7465 45.9767 13.4722L42.7008 13.4722C42.6588 13.7533 42.6234 14.0353 42.5945 14.318ZM42.5243 15.1638L45.785 15.1638C45.8025 14.8752 45.8265 14.5931 45.8579 14.318L42.5949 14.318C42.5652 14.5994 42.5416 14.8814 42.5243 15.1638ZM42.4955 15.9895L45.7547 15.9895C45.7586 15.7086 45.7683 15.4331 45.785 15.1642L42.5243 15.1642C42.5091 15.4391 42.4995 15.7142 42.4955 15.9895Z" fill="rgb(72.5732,179.562,83.2721)" fill-rule="evenodd" />
		<path id="Vector" d="M42.4974 16.8351L45.7636 16.8351C45.7556 16.6338 45.7516 16.4324 45.7516 16.231C45.7516 16.1499 45.7531 16.07 45.7547 15.9893L42.4955 15.9893C42.4939 16.1029 42.4908 16.2166 42.4908 16.3319C42.4908 16.5018 42.4939 16.6694 42.4974 16.8351ZM50.4925 16.8351L53.7533 16.8351L53.7533 16.3319L50.4925 16.3319L50.4925 16.8351Z" fill="rgb(72.5732,179.562,83.2721)" fill-rule="evenodd" />
		<path id="Vector" d="M42.5409 17.6821L45.823 17.6821C45.7954 17.4005 45.7757 17.1182 45.764 16.8354L42.4979 16.8354C42.506 17.1226 42.5204 17.4046 42.5409 17.6821ZM50.4926 17.6821L53.7533 17.6821L53.7533 16.8354L50.4926 16.8354L50.4926 17.6821Z" fill="rgb(72.5732,179.562,83.2721)" fill-rule="evenodd" />
		<path id="Vector" d="M42.6197 18.528L45.9328 18.528C45.8875 18.2472 45.8509 17.9651 45.823 17.6821L42.541 17.6821C42.5611 17.9685 42.5871 18.2513 42.6197 18.528ZM50.4926 18.528L53.7533 18.528L53.7533 17.6821L50.4926 17.6821L50.4926 18.528Z" fill="rgb(72.5732,179.562,83.2721)" fill-rule="evenodd" />
		<path id="Vector" d="M42.7447 19.3732L46.0966 19.3732C46.0332 19.093 45.9786 18.8109 45.9329 18.5273L42.6198 18.5273C42.6547 18.8148 42.697 19.0965 42.7447 19.3732ZM50.4926 19.3732L53.7534 19.3732L53.7534 18.5273L50.4926 18.5273L50.4926 19.3732Z" fill="rgb(72.5732,179.562,83.2721)" fill-rule="evenodd" />
		<path id="Vector" d="M42.9138 20.2189L46.3193 20.2189C46.2357 19.9395 46.1614 19.6574 46.0965 19.373L42.7446 19.373C42.7947 19.6609 42.8509 19.943 42.9138 20.2189ZM50.4926 20.2189L53.7533 20.2189L53.7533 19.373L50.4926 19.373L50.4926 20.2189Z" fill="rgb(72.5732,179.562,83.2721)" fill-rule="evenodd" />
		<path id="Vector" d="M43.1238 21.0445L46.5968 21.0445C46.4948 20.7727 46.4023 20.4974 46.3193 20.2192L42.9139 20.2192C42.9775 20.5005 43.047 20.7756 43.1238 21.0445ZM50.4927 21.0445L53.7534 21.0445L53.7534 20.2192L50.4927 20.2192L50.4927 21.0445ZM43.3896 21.8911L46.9491 21.8911C46.8217 21.6131 46.7042 21.3308 46.5968 21.0445L43.1238 21.0445C43.2057 21.3332 43.2941 21.616 43.3896 21.8911ZM50.4927 21.8911L53.7534 21.8911L53.7534 21.0445L50.4927 21.0445L50.4927 21.8911Z" fill="rgb(72.5732,179.562,83.2721)" fill-rule="evenodd" />
		<path id="Vector" d="M43.7115 22.7365L47.3769 22.7365C47.2236 22.46 47.0807 22.1778 46.9485 21.8906L43.389 21.8906C43.4903 22.1797 43.5978 22.4614 43.7115 22.7365ZM50.4925 22.7365L53.7533 22.7365L53.7533 21.8906L50.4925 21.8906L50.4925 22.7365Z" fill="rgb(72.5732,179.562,83.2721)" fill-rule="evenodd" />
		<path id="Vector" d="M44.0945 23.5822L47.891 23.5822C47.7089 23.307 47.5375 23.0248 47.3773 22.7363L43.7119 22.7363C43.8322 23.0258 43.9602 23.3078 44.0945 23.5822ZM50.4926 23.5822L53.7533 23.5822L53.7533 22.7363L50.4926 22.7363L50.4926 23.5822Z" fill="rgb(72.5732,179.562,83.2721)" fill-rule="evenodd" />
		<path id="Vector" d="M44.5422 24.4279L48.5049 24.4279C48.2883 24.1548 48.0835 23.8726 47.891 23.582L44.0945 23.582C44.2369 23.873 44.387 24.1543 44.5422 24.4279ZM50.4926 24.4279L53.7533 24.4279L53.7533 23.582L50.4926 23.582L50.4926 24.4279Z" fill="rgb(72.5732,179.562,83.2721)" fill-rule="evenodd" />
		<path id="Vector" d="M45.0485 25.2535L49.2211 25.2535C48.9699 24.9894 48.7309 24.714 48.5048 24.4282L44.5422 24.4282C44.7018 24.7088 44.8707 24.9841 45.0485 25.2535ZM50.4925 25.2535L53.7533 25.2535L53.7533 24.4282L50.4925 24.4282L50.4925 25.2535Z" fill="rgb(72.5732,179.562,83.2721)" fill-rule="evenodd" />
		<path id="Vector" d="M45.6465 26.0995L50.1252 26.0995C49.8073 25.8356 49.5054 25.5529 49.2212 25.2529L45.0486 25.2529C45.2385 25.5417 45.438 25.824 45.6465 26.0995ZM50.4927 26.0995L53.7534 26.0995L53.7534 25.2529L50.4927 25.2529L50.4927 26.0995Z" fill="rgb(72.5732,179.562,83.2721)" fill-rule="evenodd" />
		<path id="Vector" d="M46.3337 26.9454L53.7534 26.9454L53.7534 26.0996L50.4926 26.0996L50.4926 26.3817C50.4926 26.3817 50.3549 26.2886 50.1252 26.0996L45.6465 26.0996C45.866 26.3892 46.0951 26.6713 46.3337 26.9454Z" fill="rgb(72.5732,179.562,83.2721)" fill-rule="evenodd" />
		<path id="Vector" d="M47.1239 27.7911L53.7533 27.7911L53.7533 26.9453L46.3336 26.9453C46.592 27.2425 46.8566 27.5234 47.1239 27.7911Z" fill="rgb(72.5732,179.562,83.2721)" fill-rule="evenodd" />
		<path id="Vector" d="M48.0358 28.6369L53.7533 28.6369L53.7533 27.791L47.124 27.791C47.4178 28.0837 47.7219 28.3658 48.0358 28.6369Z" fill="rgb(72.5732,179.562,83.2721)" fill-rule="evenodd" />
		<path id="Vector" d="M49.0923 29.4826L53.7537 29.4826L53.7537 28.6367L48.0361 28.6367C48.3774 28.9319 48.7297 29.214 49.0923 29.4826ZM50.3001 30.3086L53.7533 30.3086L53.7533 29.4826L49.0919 29.4826C49.484 29.7732 49.887 30.0487 50.3001 30.3086ZM51.79 31.1544L53.7537 31.1544L53.7537 30.3086L50.3005 30.3086C50.8359 30.6442 51.3403 30.9255 51.79 31.1544Z" fill="rgb(72.5732,179.562,83.2721)" fill-rule="evenodd" />
		<path id="Vector" d="M53.7533 32.0001L53.7533 31.1543L51.7897 31.1543C52.9583 31.7495 53.7533 32.0001 53.7533 32.0001Z" fill="rgb(72.5732,179.562,83.2721)" fill-rule="evenodd" />
		<path id="Vector" d="M53.7533 16.332L53.7533 31.9998C53.7533 31.9998 42.4908 28.4554 42.4908 16.332C42.4908 3.84662 53.7533 0 53.7533 0L53.7533 3.84662C53.7533 3.84662 45.7516 6.30343 45.7516 16.2311C45.7516 23.1992 50.4925 26.3812 50.4925 26.3812L50.4925 16.332L53.7533 16.332Z" fill-rule="nonzero" />
		<path id="Vector" d="M59.2951 17.158L61.6755 17.158L61.6755 16.9966L59.2951 16.9966L59.2951 17.158ZM64.4567 17.158L66.9371 17.158L66.9371 16.9966L64.4567 16.9966L64.4567 17.158ZM59.2951 17.7415L61.6755 17.7415L61.6755 17.158L59.2951 17.158L59.2951 17.7415ZM64.4567 17.7415L66.9371 17.7415L66.9371 17.158L64.4567 17.158L64.4567 17.7415Z" fill="rgb(72.5732,179.562,83.2721)" fill-rule="evenodd" />
		<path id="Vector" d="M59.2951 18.326L61.6755 18.326L61.6755 17.7417L59.2951 17.7417L59.2951 18.326ZM64.4567 18.326L66.9371 18.326L66.9371 17.7417L64.4567 17.7417L64.4567 18.326Z" fill="rgb(72.5732,179.562,83.2721)" fill-rule="evenodd" />
		<path id="Vector" d="M59.2951 18.9092L61.6755 18.9092L61.6755 18.3257L59.2951 18.3257L59.2951 18.9092ZM64.4567 18.9092L66.9371 18.9092L66.9371 18.3257L64.4567 18.3257L64.4567 18.9092ZM59.2951 19.4936L61.6755 19.4936L61.6755 18.9092L59.2951 18.9092L59.2951 19.4936ZM64.4567 19.4936L66.9371 19.4936L66.9371 18.9092L64.4567 18.9092L64.4567 19.4936Z" fill="rgb(72.5732,179.562,83.2721)" fill-rule="evenodd" />
		<path id="Vector" d="M59.2951 20.0785L61.6755 20.0785L61.6755 19.4941L59.2951 19.4941L59.2951 20.0785ZM64.4567 20.0785L66.9371 20.0785L66.9371 19.4941L64.4567 19.4941L64.4567 20.0785ZM59.2951 20.6628L61.6755 20.6628L61.6755 20.0785L59.2951 20.0785L59.2951 20.6628ZM64.4567 20.6628L66.9371 20.6628L66.9371 20.0785L64.4567 20.0785L64.4567 20.6628Z" fill="rgb(72.5732,179.562,83.2721)" fill-rule="evenodd" />
		<path id="Vector" d="M59.2951 21.2457L61.6755 21.2457L61.6755 20.6621L59.2951 20.6621L59.2951 21.2457ZM64.4567 21.2457L66.9371 21.2457L66.9371 20.6621L64.4567 20.6621L64.4567 21.2457ZM59.2951 21.8498L61.6755 21.8498L61.6755 21.2457L59.2951 21.2457L59.2951 21.8498ZM64.4567 21.8498L66.9371 21.8498L66.9371 21.2457L64.4567 21.2457L64.4567 21.8498ZM59.2951 22.4341L61.6755 22.4341L61.6755 21.8498L59.2951 21.8498L59.2951 22.4341ZM64.4567 22.4341L66.9371 22.4341L66.9371 21.8498L64.4567 21.8498L64.4567 22.4341Z" fill="rgb(72.5732,179.562,83.2721)" fill-rule="evenodd" />
		<path id="Vector" d="M59.3537 23.0184L61.9362 23.0184C61.7247 22.7243 61.6755 22.4341 61.6755 22.4341L59.2951 22.4341C59.2951 22.4341 59.2916 22.6696 59.3537 23.0184ZM64.3507 23.0184L66.8956 23.0184C66.9243 22.8244 66.9344 22.6653 66.9371 22.5629L66.9371 22.4341L64.4566 22.4341C64.4566 22.4341 64.4853 22.7243 64.3507 23.0184ZM59.5038 23.602L62.9275 23.602C62.4251 23.5298 62.1197 23.2729 61.9362 23.0184L59.3537 23.0184C59.3847 23.1903 59.4317 23.3897 59.5038 23.602ZM63.5041 23.602L66.7625 23.602C66.8285 23.3897 66.8692 23.1903 66.8952 23.0184L64.3503 23.0184C64.2339 23.2729 63.9937 23.5298 63.5041 23.602Z" fill="rgb(72.5732,179.562,83.2721)" fill-rule="evenodd" />
		<path id="Vector" d="M59.7576 24.1864L66.527 24.1864C66.6287 23.9885 66.7051 23.7902 66.7625 23.6021L63.5041 23.6021C63.3129 23.6299 63.1187 23.6299 62.9275 23.6021L59.5038 23.6021C59.5675 23.7898 59.6497 23.9885 59.7576 24.1864Z" fill="rgb(72.5732,179.562,83.2721)" fill-rule="evenodd" />
		<path id="Vector" d="M60.1639 24.7704L66.1398 24.7704C66.2904 24.5907 66.4203 24.3947 66.527 24.186L59.7576 24.186C59.8711 24.3952 60.0073 24.5911 60.1639 24.7704ZM60.8487 25.3539L65.4744 25.3539C65.7242 25.1939 65.9485 24.9971 66.1398 24.7704L60.1639 24.7704C60.3624 24.9973 60.5931 25.1939 60.8487 25.3539Z" fill="rgb(72.5732,179.562,83.2721)" fill-rule="evenodd" />
		<path id="Vector" d="M65.4743 25.3535L60.8486 25.3535C61.4034 25.7019 62.155 25.9378 63.1758 25.9378C64.1916 25.9378 64.9334 25.7023 65.4743 25.3535Z" fill="rgb(72.5732,179.562,83.2721)" fill-rule="evenodd" />
		<path id="Vector" d="M60.8366 4.26948L65.413 4.26948C64.859 3.92029 64.1043 3.68555 63.0761 3.68555C62.0984 3.68516 61.374 3.92029 60.8366 4.26948ZM60.1719 4.85342L66.0943 4.85342C65.8974 4.6261 65.6678 4.4293 65.413 4.26948L60.8366 4.26948C60.5877 4.43066 60.3638 4.6274 60.1719 4.85342Z" fill="rgb(72.5732,179.562,83.2721)" fill-rule="evenodd" />
		<path id="Vector" d="M59.7743 5.43745L66.4928 5.43745C66.3819 5.22875 66.2483 5.03292 66.0944 4.85352L60.172 4.85352C60.019 5.03345 59.8857 5.22921 59.7743 5.43745ZM59.5209 6.02139L66.7396 6.02139C66.6746 5.81983 66.5919 5.62442 66.4925 5.43745L59.7739 5.43745C59.6738 5.62487 59.5891 5.82017 59.5209 6.02139ZM59.3672 6.60572L61.8923 6.60572C62.0782 6.33373 62.4204 6.08192 63.0556 6.08192C63.7012 6.08192 64.0492 6.33334 64.2362 6.60572L66.8832 6.60572C66.8502 6.40775 66.8023 6.21255 66.74 6.02178L59.5213 6.02178C59.4564 6.21261 59.405 6.40773 59.3672 6.60572Z" fill="rgb(72.5732,179.562,83.2721)" fill-rule="evenodd" />
		<path id="Vector" d="M59.2967 7.18931L61.681 7.18931C61.7038 6.98057 61.7763 6.78034 61.8924 6.60537L59.3673 6.60537C59.3165 6.87115 59.3014 7.08105 59.2967 7.18931ZM64.4509 7.18931L66.9372 7.18931L66.9372 7.14314C66.9315 6.96273 66.9135 6.78293 66.8833 6.60498L64.2363 6.60498C64.3915 6.82963 64.4369 7.06825 64.4509 7.18931ZM59.2952 7.79342L61.6755 7.79342L61.6755 7.26962C61.6755 7.26962 61.6755 7.23936 61.681 7.18931L59.2967 7.18931C59.2944 7.24091 59.2952 7.26962 59.2952 7.26962L59.2952 7.79342ZM64.4567 7.79342L66.9372 7.79342L66.9372 7.18931L64.4509 7.18931C64.4571 7.23936 64.4571 7.26962 64.4571 7.26962L64.4571 7.79342L64.4567 7.79342Z" fill="rgb(72.5732,179.562,83.2721)" fill-rule="evenodd" />
		<path id="Vector" d="M59.2951 8.37778L61.6755 8.37778L61.6755 7.79346L59.2951 7.79346L59.2951 8.37778ZM64.4567 8.37778L66.9371 8.37778L66.9371 7.79346L64.4567 7.79346L64.4567 8.37778ZM59.2951 8.96172L61.6755 8.96172L61.6755 8.37778L59.2951 8.37778L59.2951 8.96172ZM64.4567 8.96172L66.9371 8.96172L66.9371 8.37778L64.4567 8.37778L64.4567 8.96172Z" fill="rgb(72.5732,179.562,83.2721)" fill-rule="evenodd" />
		<path id="Vector" d="M59.2951 9.54536L61.6755 9.54536L61.6755 8.96143L59.2951 8.96143L59.2951 9.54536ZM64.4567 9.54536L66.9371 9.54536L66.9371 8.96143L64.4567 8.96143L64.4567 9.54536ZM59.2951 10.1297L61.6755 10.1297L61.6755 9.54575L59.2951 9.54575L59.2951 10.1297ZM64.4567 10.1297L66.9371 10.1297L66.9371 9.54575L64.4567 9.54575L64.4567 10.1297Z" fill="rgb(72.5732,179.562,83.2721)" fill-rule="evenodd" />
		<path id="Vector" d="M59.2951 10.7138L61.6755 10.7138L61.6755 10.1299L59.2951 10.1299L59.2951 10.7138ZM64.4567 10.7138L66.9371 10.7138L66.9371 10.1299L64.4567 10.1299L64.4567 10.7138ZM59.2951 11.2978L61.6755 11.2978L61.6755 10.7138L59.2951 10.7138L59.2951 11.2978ZM64.4567 11.2978L66.9371 11.2978L66.9371 10.7138L64.4567 10.7138L64.4567 11.2978ZM59.2951 11.8817L61.6755 11.8817L61.6755 11.2978L59.2951 11.2978L59.2951 11.8817ZM64.4567 11.8817L66.9371 11.8817L66.9371 11.2978L64.4567 11.2978L64.4567 11.8817Z" fill="rgb(72.5732,179.562,83.2721)" fill-rule="evenodd" />
		<path id="Vector" d="M59.2951 12.4653L61.6755 12.4653L61.6755 11.8813L59.2951 11.8813L59.2951 12.4653ZM64.4567 12.4653L66.9371 12.4653L66.9371 11.8813L64.4567 11.8813L64.4567 12.4653Z" fill="rgb(72.5732,179.562,83.2721)" fill-rule="evenodd" />
		<path id="Vector" d="M59.2951 13.0497L61.6755 13.0497L61.6755 12.4653L59.2951 12.4653L59.2951 13.0497ZM64.4567 13.0497L66.9371 13.0497L66.9371 12.4653L64.4567 12.4653L64.4567 13.0497Z" fill="rgb(72.5732,179.562,83.2721)" fill-rule="evenodd" />
		<path id="Vector" d="M59.2951 13.6337L61.6755 13.6337L61.6755 13.0498L59.2951 13.0498L59.2951 13.6337ZM64.4567 13.6337L66.9371 13.6337L66.9371 13.0498L64.4567 13.0498L64.4567 13.6337ZM59.2951 14.2181L61.6755 14.2181L61.6755 13.6341L59.2951 13.6341L59.2951 14.2181ZM64.4567 14.2181L66.9371 14.2181L66.9371 13.6341L64.4567 13.6341L64.4567 14.2181ZM59.2951 14.8222L61.6755 14.8222L61.6755 14.2181L59.2951 14.2181L59.2951 14.8222ZM64.4567 14.8222L66.9371 14.8222L66.9371 14.2181L64.4567 14.2181L64.4567 14.8222Z" fill="rgb(72.5732,179.562,83.2721)" fill-rule="evenodd" />
		<path id="Vector" d="M59.2951 15.4057L61.6755 15.4057L61.6755 14.8218L59.2951 14.8218L59.2951 15.4057ZM64.4567 15.4057L66.9371 15.4057L66.9371 14.8218L64.4567 14.8218L64.4567 15.4057ZM59.2951 15.9897L61.6755 15.9897L61.6755 15.4057L59.2951 15.4057L59.2951 15.9897ZM64.4567 15.9897L66.9371 15.9897L66.9371 15.4057L64.4567 15.4057L64.4567 15.9897Z" fill="rgb(72.5732,179.562,83.2721)" fill-rule="evenodd" />
		<path id="Vector" d="M59.2951 16.5736L61.6755 16.5736L61.6755 15.9893L59.2951 15.9893L59.2951 16.5736ZM64.4567 16.5736L66.9371 16.5736L66.9371 15.9893L64.4567 15.9893L64.4567 16.5736ZM66.9371 16.9965L66.9371 16.5736L64.4567 16.5736L64.4567 16.9965L66.9371 16.9965ZM61.6755 16.5736L59.2951 16.5736L59.2951 16.9965L61.6755 16.9965L61.6755 16.5736Z" fill="rgb(72.5732,179.562,83.2721)" fill-rule="evenodd" />
		<path id="Vector" d="M61.6755 22.4339L61.6755 7.26978C61.6755 7.26978 61.6755 6.08173 63.0556 6.08173C64.4566 6.08173 64.4566 7.26978 64.4566 7.26978L64.4566 22.4339C64.4566 22.4339 64.5765 23.622 63.2162 23.622C61.8757 23.622 61.6755 22.4339 61.6755 22.4339ZM59.2951 22.4339L59.2951 7.26978C59.2951 7.26978 59.2547 3.68506 63.0758 3.68506C67.0966 3.68506 66.9367 7.26978 66.9367 7.26978L66.9367 22.4339C66.9367 22.4339 67.0966 25.9379 63.1759 25.9379C59.2346 25.9379 59.2951 22.4339 59.2951 22.4339Z" fill-rule="nonzero" />
		<path id="Vector" d="M19.382 4.43062L23.9942 4.43062C23.4533 4.08258 22.7095 3.84668 21.6856 3.84668C20.6663 3.84668 19.9237 4.08258 19.382 4.43062ZM18.7155 5.01456L24.6569 5.01456C24.4669 4.78723 24.2433 4.5903 23.9938 4.43062L19.382 4.43062C19.1317 4.59059 18.907 4.78746 18.7155 5.01456Z" fill="rgb(72.5732,179.562,83.2721)" fill-rule="evenodd" />
		<path id="Vector" d="M18.3391 5.5789L25.029 5.5789C24.9262 5.37788 24.8015 5.18882 24.6573 5.01514L18.7155 5.01514C18.5698 5.18878 18.4436 5.37782 18.3391 5.5789Z" fill="rgb(72.5732,179.562,83.2721)" fill-rule="evenodd" />
		<path id="Vector" d="M18.0989 6.16207L25.2637 6.16207C25.2032 5.96074 25.1246 5.76529 25.029 5.57812L18.3391 5.57812C18.242 5.76531 18.1616 5.96072 18.0989 6.16207ZM17.9647 6.74639L20.5972 6.74639C20.7784 6.50156 21.1121 6.26294 21.7255 6.26294C22.3584 6.26294 22.6932 6.50156 22.8694 6.74639L25.3921 6.74639C25.3647 6.54871 25.3219 6.35348 25.2641 6.16245L18.0989 6.16245C18.0318 6.37702 17.9903 6.57683 17.9647 6.74639Z" fill="rgb(72.5732,179.562,83.2721)" fill-rule="evenodd" />
		<path id="Vector" d="M17.9244 7.31035L20.385 7.31035L20.385 7.26999C20.385 7.26999 20.4064 7.0046 20.5973 6.74658L17.9647 6.74658C17.917 7.06125 17.9244 7.26999 17.9244 7.26999L17.9244 7.31035ZM23.0657 7.31035L25.4263 7.31035L25.4263 7.14428C25.4223 7.01117 25.4108 6.87839 25.3918 6.74658L22.869 6.74658C23.0553 7.0046 23.0657 7.26999 23.0657 7.26999L23.0657 7.31035ZM17.9244 7.89428L20.385 7.89428L20.385 7.31035L17.9244 7.31035L17.9244 7.89428ZM23.0657 7.89428L25.4263 7.89428L25.4263 7.31035L23.0657 7.31035L23.0657 7.89428Z" fill="rgb(72.5732,179.562,83.2721)" fill-rule="evenodd" />
		<path id="Vector" d="M17.9244 8.47896L20.3851 8.47896L20.3851 7.89502L17.9244 7.89502L17.9244 8.47896ZM23.0657 8.47896L25.4263 8.47896L25.4263 7.89502L23.0657 7.89502L23.0657 8.47896ZM17.9244 9.04272L20.3851 9.04272L20.3851 8.47896L17.9244 8.47896L17.9244 9.04272ZM23.0657 9.04272L25.4263 9.04272L25.4263 8.47896L23.0657 8.47896L23.0657 9.04272Z" fill="rgb(72.5732,179.562,83.2721)" fill-rule="evenodd" />
		<path id="Vector" d="M17.9244 9.62593L20.3851 9.62593L20.3851 9.04199L17.9244 9.04199L17.9244 9.62593ZM23.0657 9.62593L25.4263 9.62593L25.4263 9.04199L23.0657 9.04199L23.0657 9.62593ZM17.9244 10.1897L20.3851 10.1897L20.3851 9.62593L17.9244 9.62593L17.9244 10.1897ZM23.0657 10.1897L25.4263 10.1897L25.4263 9.62593L23.0657 9.62593L23.0657 10.1897Z" fill="rgb(72.5732,179.562,83.2721)" fill-rule="evenodd" />
		<path id="Vector" d="M17.9244 10.7743L20.3851 10.7743L20.3851 10.1899L17.9244 10.1899L17.9244 10.7743ZM23.0657 10.7743L25.4263 10.7743L25.4263 10.1899L23.0657 10.1899L23.0657 10.7743ZM17.9244 11.3582L20.3851 11.3582L20.3851 10.7743L17.9244 10.7743L17.9244 11.3582ZM23.0657 11.3582L25.4263 11.3582L25.4263 10.7743L23.0657 10.7743L23.0657 11.3582Z" fill="rgb(72.5732,179.562,83.2721)" fill-rule="evenodd" />
		<path id="Vector" d="M17.9244 11.9217L20.3851 11.9217L20.3851 11.3579L17.9244 11.3579L17.9244 11.9217ZM23.0657 11.9217L25.4263 11.9217L25.4263 11.3579L23.0657 11.3579L23.0657 11.9217Z" fill="rgb(72.5732,179.562,83.2721)" fill-rule="evenodd" />
		<path id="Vector" d="M17.9244 12.5062L20.3851 12.5062L20.3851 11.9219L17.9244 11.9219L17.9244 12.5062ZM23.0657 12.5062L25.4263 12.5062L25.4263 11.9219L23.0657 11.9219L23.0657 12.5062Z" fill="rgb(72.5732,179.562,83.2721)" fill-rule="evenodd" />
		<path id="Vector" d="M17.9244 13.0898L20.3851 13.0898L20.3851 12.5059L17.9244 12.5059L17.9244 13.0898ZM23.0657 13.0898L25.4263 13.0898L25.4263 12.5059L23.0657 12.5059L23.0657 13.0898Z" fill="rgb(72.5732,179.562,83.2721)" fill-rule="evenodd" />
		<path id="Vector" d="M17.9244 13.6536L20.3851 13.6536L20.3851 13.0898L17.9244 13.0898L17.9244 13.6536ZM23.0657 13.6536L25.4263 13.6536L25.4263 13.0898L23.0657 13.0898L23.0657 13.6536ZM17.9244 14.2375L20.3851 14.2375L20.3851 13.6536L17.9244 13.6536L17.9244 14.2375ZM23.0657 14.2375L25.4263 14.2375L25.4263 13.6536L23.0657 13.6536L23.0657 14.2375ZM17.9244 14.8219L20.3851 14.8219L20.3851 14.2379L17.9244 14.2379L17.9244 14.8219ZM23.0657 14.8219L25.4263 14.8219L25.4263 14.2379L23.0657 14.2379L23.0657 14.8219Z" fill="rgb(72.5732,179.562,83.2721)" fill-rule="evenodd" />
		<path id="Vector" d="M17.9244 15.3855L20.3851 15.3855L20.3851 14.8218L17.9244 14.8218L17.9244 15.3855ZM23.0657 15.3855L25.4263 15.3855L25.4263 14.8218L23.0657 14.8218L23.0657 15.3855ZM17.9244 15.9695L20.3851 15.9695L20.3851 15.3855L17.9244 15.3855L17.9244 15.9695ZM23.0657 15.9695L25.4263 15.9695L25.4263 15.3855L23.0657 15.3855L23.0657 15.9695Z" fill="rgb(72.5732,179.562,83.2721)" fill-rule="evenodd" />
		<path id="Vector" d="M17.9244 16.5537L20.3851 16.5537L20.3851 15.9697L17.9244 15.9697L17.9244 16.5537ZM23.0657 16.5537L25.4263 16.5537L25.4263 15.9697L23.0657 15.9697L23.0657 16.5537Z" fill="rgb(72.5732,179.562,83.2721)" fill-rule="evenodd" />
		<path id="Vector" d="M17.9244 17.117L20.3851 17.117L20.3851 16.5532L17.9244 16.5532L17.9244 17.117ZM23.0657 17.117L25.4263 17.117L25.4263 16.5532L23.0657 16.5532L23.0657 17.117ZM17.9244 17.7013L20.3851 17.7013L20.3851 17.117L17.9244 17.117L17.9244 17.7013ZM23.0657 17.7013L25.4263 17.7013L25.4263 17.117L23.0657 17.117L23.0657 17.7013Z" fill="rgb(72.5732,179.562,83.2721)" fill-rule="evenodd" />
		<path id="Vector" d="M17.9244 18.2654L20.3851 18.2654L20.3851 17.7017L17.9244 17.7017L17.9244 18.2654ZM23.0658 18.2654L25.4264 18.2654L25.4264 17.7017L23.0658 17.7017L23.0658 18.2654ZM17.9244 18.8497L20.3851 18.8497L20.3851 18.2654L17.9244 18.2654L17.9244 18.8497ZM23.0658 18.8497L25.4264 18.8497L25.4264 18.2654L23.0658 18.2654L23.0658 18.8497ZM14.8305 19.4333L25.4264 19.4333L25.4264 18.8497L23.0658 18.8497L23.0658 18.9906L20.3851 18.9906L20.3851 18.8497L17.9244 18.8497L17.9244 18.9906L14.5434 18.9906L14.8305 19.4333Z" fill="rgb(72.5732,179.562,83.2721)" fill-rule="evenodd" />
		<path id="Vector" d="M15.1964 19.9981L25.4264 19.9981L25.4264 19.4336L14.8305 19.4336L15.1964 19.9981ZM15.5747 20.5817L25.4264 20.5817L25.4264 19.9981L15.1964 19.9981L15.5747 20.5817Z" fill="rgb(72.5732,179.562,83.2721)" fill-rule="evenodd" />
		<path id="Vector" d="M15.9533 21.1655L25.4263 21.1655L25.4263 20.5815L15.5746 20.5815L15.9533 21.1655ZM18.0245 21.7296L20.3451 21.7296L20.3451 21.4072L23.1259 21.4072L23.1259 21.7296L25.4263 21.7296L25.4263 21.1655L15.9533 21.1655L16.0841 21.3672L18.0245 21.3672L18.0245 21.7296Z" fill="rgb(72.5732,179.562,83.2721)" fill-rule="evenodd" />
		<path id="Vector" d="M18.0245 22.3138L20.3451 22.3138L20.3451 21.7295L18.0245 21.7295L18.0245 22.3138ZM23.1259 22.3138L25.4263 22.3138L25.4263 21.7295L23.1259 21.7295L23.1259 22.3138Z" fill="rgb(72.5732,179.562,83.2721)" fill-rule="evenodd" />
		<path id="Vector" d="M18.0245 22.897L20.3451 22.897L20.3451 22.3135L18.0245 22.3135L18.0245 22.897ZM23.1259 22.897L25.4263 22.897L25.4263 22.3135L23.1259 22.3135L23.1259 22.897ZM18.0245 23.4608L20.3451 23.4608L20.3451 22.897L18.0245 22.897L18.0245 23.4608ZM23.1259 23.4608L25.4263 23.4608L25.4263 22.897L23.1259 22.897L23.1259 23.4608Z" fill="rgb(72.5732,179.562,83.2721)" fill-rule="evenodd" />
		<path id="Vector" d="M18.0245 24.0453L20.3451 24.0453L20.3451 23.4609L18.0245 23.4609L18.0245 24.0453ZM23.1259 24.0453L25.4263 24.0453L25.4263 23.4609L23.1259 23.4609L23.1259 24.0453ZM18.0245 24.6296L20.3451 24.6296L20.3451 24.0453L18.0245 24.0453L18.0245 24.6296ZM23.1259 24.6296L25.4263 24.6296L25.4263 24.0453L23.1259 24.0453L23.1259 24.6296ZM18.0245 25.1933L20.3451 25.1933L20.3451 24.6296L18.0245 24.6296L18.0245 25.1933ZM23.1259 25.1933L25.4263 25.1933L25.4263 24.6296L23.1259 24.6296L23.1259 25.1933Z" fill="rgb(72.5732,179.562,83.2721)" fill-rule="evenodd" />
		<path id="Vector" d="M18.0245 25.7764L20.3451 25.7764L20.3451 25.1929L18.0245 25.1929L18.0245 25.7764ZM23.1259 25.7764L25.4263 25.7764L25.4263 25.1929L23.1259 25.1929L23.1259 25.7764Z" fill="rgb(72.5732,179.562,83.2721)" fill-rule="evenodd" />
		<path id="Vector" d="M20.3851 18.9907L23.0658 18.9907L23.0658 7.26999C23.0658 7.26999 23.0258 6.26313 21.7253 6.26313C20.465 6.26313 20.3847 7.26999 20.3847 7.26999L20.3847 18.9907L20.3851 18.9907ZM18.0245 25.7767L18.0245 21.3671L16.0841 21.3671L14.5434 18.9907L17.9244 18.9907L17.9244 7.26999C17.9244 7.26999 17.8045 3.84668 21.6853 3.84668C25.5862 3.84668 25.4264 7.26999 25.4264 7.26999L25.4264 25.7767L23.1259 25.7767L23.1259 21.4071L20.3451 21.4071L20.3451 25.7767L18.0245 25.7767Z" fill-rule="nonzero" />
	</g>
</svg>
