<svg width="22" height="22" viewBox="0 0 22 22" fill="none" xmlns="http://www.w3.org/2000/svg">
<path d="M13.0863 1.39494C13.1938 0.995113 13.6054 0.757427 14.0052 0.864668C15.6154 1.29773 17.084 2.14661 18.263 3.3256C19.4421 4.5047 20.2909 5.97315 20.724 7.58342C20.8315 7.98336 20.5946 8.39473 20.1947 8.50236C19.7947 8.60993 19.3834 8.37296 19.2757 7.97307C18.9109 6.61661 18.1957 5.3794 17.2025 4.38615C16.2094 3.39313 14.9727 2.67873 13.6166 2.31389C13.2167 2.20635 12.979 1.79478 13.0863 1.39494Z" fill="white"/>
<path d="M12.181 4.77586C12.2887 4.37608 12.701 4.13898 13.1009 4.24656C14.1173 4.52007 15.044 5.05606 15.7884 5.80027C16.5328 6.54469 17.0685 7.47215 17.3421 8.48875C17.4497 8.88874 17.2128 9.30009 16.8128 9.4077C16.4128 9.51522 16.0014 9.27835 15.8938 8.8784C15.6886 8.11562 15.2864 7.42037 14.7278 6.8618C14.1692 6.30314 13.4732 5.90103 12.7102 5.69578C12.3105 5.58803 12.0734 5.17574 12.181 4.77586Z" fill="white"/>
<path d="M5.24512 0.0117004C5.59415 -0.0303921 5.94764 0.0417238 6.25195 0.217755C6.55547 0.393367 6.79398 0.662877 6.93164 0.985333L9.12988 6.11326V6.11424C9.23486 6.36028 9.27743 6.62902 9.25391 6.89549C9.23032 7.16174 9.14145 7.4179 8.99512 7.64158L7.1748 10.4228L7.16016 10.4521C7.15692 10.4617 7.15498 10.4722 7.1543 10.4824C7.15312 10.5008 7.15683 10.5192 7.16406 10.5361L7.32617 10.8525C8.17013 12.4096 9.48293 13.6656 11.082 14.4404L11.1104 14.4502C11.1203 14.452 11.1305 14.4519 11.1406 14.4512C11.1608 14.4496 11.1805 14.443 11.1973 14.4316L11.2012 14.4287L13.9395 12.6035C14.1641 12.4535 14.4234 12.3619 14.6924 12.3369C14.9612 12.312 15.2322 12.3549 15.4805 12.4609L15.3271 12.8193L15.2852 12.918L15.4814 12.4609L20.6025 14.6562L20.7207 14.7129C20.9916 14.8548 21.218 15.0707 21.3721 15.3369C21.5481 15.6412 21.6201 15.9947 21.5781 16.3437V16.3496L20.834 16.2539L20.7744 16.2461L21.5781 16.3496C21.3928 17.7975 20.6855 19.1283 19.5898 20.0928C18.4942 21.0571 17.0846 21.5887 15.625 21.5888C11.481 21.5888 7.50643 19.9429 4.57617 17.0127C1.64604 14.0824 0 10.1078 0 5.96385C0.000217058 4.50433 0.532636 3.09448 1.49707 1.99901C2.46155 0.903663 3.79255 0.197755 5.24023 0.0126769L5.24512 0.0117004ZM1.5 5.96385C1.5 9.70993 2.9879 13.3032 5.63672 15.9521C8.28567 18.6011 11.8788 20.0888 15.625 20.0888L15.8301 20.0849C16.8512 20.0383 17.8283 19.6448 18.5986 18.9668C19.4192 18.2445 19.9489 17.2481 20.0889 16.164C20.0919 16.1378 20.0864 16.1117 20.0732 16.0888C20.06 16.0659 20.04 16.0475 20.0156 16.0371L20.3135 15.3369L20.3086 15.3467L20.0156 16.0371L20.0137 16.0361L14.8916 13.8398V13.8408C14.8726 13.8327 14.8516 13.8292 14.8311 13.831C14.8104 13.833 14.7897 13.84 14.7725 13.8515L12.0371 15.6728L12.0381 15.6738C11.8053 15.8315 11.5352 15.9258 11.2549 15.9472C11.0447 15.9633 10.8341 15.9384 10.6348 15.874L10.4346 15.7939L10.0615 15.6035C8.22265 14.6169 6.73616 13.0763 5.81641 11.1953L6.42773 10.8955L5.81445 11.1914C5.69331 10.9394 5.63934 10.6598 5.6582 10.3808C5.67707 10.1018 5.7679 9.83204 5.92188 9.59861L7.74023 6.82029C7.75141 6.80313 7.75796 6.78308 7.75977 6.76268C7.76146 6.74268 7.75869 6.7226 7.75098 6.70408L5.55273 1.57713L5.55176 1.5742C5.5414 1.55005 5.5237 1.5298 5.50098 1.51658C5.47802 1.5033 5.45016 1.49681 5.42383 1.49998C4.34046 1.64 3.34507 2.1703 2.62305 2.99022C1.89974 3.81181 1.50022 4.86924 1.5 5.96385Z" fill="white"/>
</svg>
